<svg xmlns="http://www.w3.org/2000/svg" width="164.2" height="94.7" viewBox="0 0 164.2 94.7">
  <defs>
    <style>
      .a, .b, .c {
        fill: #fff;
      }

      .d {
        fill: none;
      }
    </style>
  </defs>
  <g>
    <g>
      <g>
        <path class="a" d="M20.3,64.1a1.2,1.2,0,0,1,.8-.4h2.2a.9.9,0,0,0,1-1c0-.5-.5-.9-1.3-.9H21.1a2.9,2.9,0,0,0-2.2.9,3,3,0,0,0-1,2.3v5.5a3,3,0,0,0,1,2.3,2.9,2.9,0,0,0,2.2.9h2.2a.9.9,0,0,0,1-1,.9.9,0,0,0-1-1H21.1a1.2,1.2,0,0,1-.8-.4,1.1,1.1,0,0,1-.3-.8V64.9a1.1,1.1,0,0,1,.3-.8"/>
        <path class="a" d="M32.2,61.7a.9.9,0,0,0-1,1v7.1a1.7,1.7,0,1,1-3.4,0V62.7a.9.9,0,0,0-1-1,1,1,0,0,0-1.1,1v7.1a3.7,3.7,0,0,0,1.1,2.7,3.9,3.9,0,0,0,5.4,0,3.7,3.7,0,0,0,1.1-2.7V62.7a1,1,0,0,0-1.1-1"/>
        <path class="a" d="M40.1,71.6H36.7V62.7a1,1,0,0,0-2,0v9.9a.9.9,0,0,0,1,1h4.4a.9.9,0,0,0,1-1,.9.9,0,0,0-1-1"/>
        <path class="a" d="M47.6,61.7H42.2a1,1,0,0,0-1.1,1c0,.7.4,1,1.1,1h1.7v8.9a1,1,0,0,0,2,0V63.7h1.7c.7,0,1-.3,1-1a.9.9,0,0,0-1-1"/>
        <path class="a" d="M56.5,61.7a.9.9,0,0,0-1,1v7.1a1.7,1.7,0,0,1-2.9,1.3,2.1,2.1,0,0,1-.5-1.3V62.7a1,1,0,0,0-2,0v7.1a3.3,3.3,0,0,0,1.1,2.7,3.6,3.6,0,0,0,2.6,1.1,4,4,0,0,0,2.7-1.1,3.7,3.7,0,0,0,1.1-2.7V62.7a1,1,0,0,0-1.1-1"/>
        <path class="a" d="M66.5,65.5a3.8,3.8,0,0,0-3.8-3.8H60a.9.9,0,0,0-1,1v9.9a1,1,0,0,0,2,0V69.2h1.6L64.5,73a1.1,1.1,0,0,0,1,.6,1,1,0,0,0,1-1c0-.2-.1-.3-.1-.5l-1.7-3.4a3.3,3.3,0,0,0,1.8-3.2m-2,0a2.1,2.1,0,0,1-.5,1.2,2.1,2.1,0,0,1-1.3.5H61V63.7h1.7a1.7,1.7,0,0,1,1.8,1.8"/>
        <path class="a" d="M73.3,71.6H69.9V68.1h2.3a1,1,0,1,0,0-2H69.9V63.7h3.4a.9.9,0,0,0,1-1,.9.9,0,0,0-1-1H68.9a.9.9,0,0,0-1,1v9.9a.9.9,0,0,0,1,1h4.4a.9.9,0,0,0,1-1,.9.9,0,0,0-1-1"/>
      </g>
      <g>
        <path class="b" d="M2.5,84.5a1.6,1.6,0,0,1,.9-.3H5.7a1.1,1.1,0,1,0,0-2.2H3.4A3.3,3.3,0,0,0,1,83a3.3,3.3,0,0,0-1,2.4v5.8a3.3,3.3,0,0,0,1,2.5,3.7,3.7,0,0,0,2.4,1H5.7a1,1,0,0,0,1.1-1.1,1,1,0,0,0-1.1-1.1H3.4a1.2,1.2,0,0,1-1.2-1.3V85.4a1.6,1.6,0,0,1,.3-.9"/>
        <path class="b" d="M17.5,86a3.6,3.6,0,0,0-1.2-2.8A3.6,3.6,0,0,0,13.5,82H10.6a1,1,0,0,0-1.1,1.1V93.6a1.1,1.1,0,1,0,2.2,0V90h1.7l2,4a1.2,1.2,0,0,0,1,.7,1.2,1.2,0,0,0,.8-.4.9.9,0,0,0,.3-.7.7.7,0,0,0-.1-.5l-1.8-3.6A3.7,3.7,0,0,0,17.5,86m-2.2,0a1.7,1.7,0,0,1-.5,1.3,1.5,1.5,0,0,1-1.3.5H11.7V84.2h1.8a1.5,1.5,0,0,1,1.3.5,1.7,1.7,0,0,1,.5,1.3"/>
        <path class="b" d="M24.2,82a3.6,3.6,0,0,0-2.8,1.2A3.6,3.6,0,0,0,20.2,86v4.7a3.8,3.8,0,0,0,1.2,2.8,3.6,3.6,0,0,0,2.8,1.2,4.1,4.1,0,0,0,4-4V86A3.6,3.6,0,0,0,27,83.2,3.8,3.8,0,0,0,24.2,82m0,10.5a1.9,1.9,0,0,1-1.3-.5,1.7,1.7,0,0,1-.5-1.3V86a1.7,1.7,0,0,1,.5-1.3,1.5,1.5,0,0,1,1.3-.5,1.7,1.7,0,0,1,1.3.5A2.1,2.1,0,0,1,26,86v4.7a2.1,2.1,0,0,1-.5,1.3,2.1,2.1,0,0,1-1.3.5"/>
        <path class="b" d="M37,88.2l-3.3-1.7a1.1,1.1,0,0,1-.7-1.1,1.2,1.2,0,0,1,1.3-1.2,5.9,5.9,0,0,1,2.5.5h.4a1,1,0,0,0,.7-.4.8.8,0,0,0,.4-.7,1.1,1.1,0,0,0-.6-1,6.4,6.4,0,0,0-3.4-.7,3,3,0,0,0-2.4,1,3.3,3.3,0,0,0-1,2.4,3.1,3.1,0,0,0,1.8,3L36,90.1a1.2,1.2,0,0,1,.7,1.1,1.4,1.4,0,0,1-1.3,1.3l-1.3-.2-1.6-.8a1,1,0,0,0-1.3.1,1.1,1.1,0,0,0-.3.8,1,1,0,0,0,.4.9,6.8,6.8,0,0,0,4.1,1.4,3.4,3.4,0,0,0,3.5-3.5,3.3,3.3,0,0,0-1.9-3"/>
        <path class="b" d="M47.7,88.2l-3.3-1.7a1.1,1.1,0,0,1-.7-1.1A1.2,1.2,0,0,1,45,84.2a5.2,5.2,0,0,1,2.4.5h.5a1,1,0,0,0,.7-.4.9.9,0,0,0,.3-.7,1.2,1.2,0,0,0-.5-1A6.9,6.9,0,0,0,45,82a3.3,3.3,0,0,0-2.5,1,3.7,3.7,0,0,0-1,2.4,3.2,3.2,0,0,0,1.9,3l3.3,1.7a1.4,1.4,0,0,1,.7,1.1,1.3,1.3,0,0,1-.4.9,1.1,1.1,0,0,1-.9.4l-1.3-.2-1.6-.8a1.1,1.1,0,0,0-1.7.9,1.2,1.2,0,0,0,.5.9,6.8,6.8,0,0,0,4.1,1.4,3.5,3.5,0,0,0,2.4-1,3.3,3.3,0,0,0,1-2.5,3.2,3.2,0,0,0-1.8-3"/>
      </g>
      <g>
        <path class="c" d="M56.2,82a3.8,3.8,0,0,0-2.8,1.2A3.6,3.6,0,0,0,52.2,86v4.7a4.1,4.1,0,0,0,4,4A3.6,3.6,0,0,0,59,93.5a3.8,3.8,0,0,0,1.2-2.8V86a4.1,4.1,0,0,0-4-4m0,10.5a1.7,1.7,0,0,1-1.8-1.8V86a2.1,2.1,0,0,1,.5-1.3,1.7,1.7,0,0,1,1.3-.5,1.5,1.5,0,0,1,1.3.5A1.7,1.7,0,0,1,58,86v4.7a1.7,1.7,0,0,1-.5,1.3,1.9,1.9,0,0,1-1.3.5"/>
        <path class="c" d="M71,82a1.2,1.2,0,0,0-1.1.7l-2.4,7.4L65,82.7a1.1,1.1,0,0,0-1-.7,1,1,0,0,0-1.1,1.1v.3l3.5,10.5a1.2,1.2,0,0,0,1.1.8,1.1,1.1,0,0,0,1-.8L72,83.4v-.3A1,1,0,0,0,71,82"/>
        <path class="c" d="M80.5,84.2a1.1,1.1,0,0,0,0-2.2H75.8a1,1,0,0,0-1.1,1.1V93.6a1,1,0,0,0,1.1,1.1h4.7a1.1,1.1,0,0,0,1.1-1.1,1,1,0,0,0-1.1-1.1H76.9V88.8h2.4a1,1,0,0,0,1.1-1.1,1,1,0,0,0-1.1-1H76.9V84.2Z"/>
        <path class="c" d="M90.3,89.5A3.7,3.7,0,0,0,92.2,86a3.9,3.9,0,0,0-1.1-2.8A4,4,0,0,0,88.2,82H85.3a1,1,0,0,0-1.1,1.1V93.6a1.1,1.1,0,0,0,1.1,1.1,1,1,0,0,0,1.1-1.1V90h1.7l2.1,4a1.1,1.1,0,0,0,.9.7,1.2,1.2,0,0,0,.8-.4.9.9,0,0,0,.3-.7.7.7,0,0,0-.1-.5ZM90.1,86a1.8,1.8,0,0,1-.6,1.3,1.4,1.4,0,0,1-1.3.5H86.4V84.2h1.8a1.4,1.4,0,0,1,1.3.5,1.8,1.8,0,0,1,.6,1.3"/>
      </g>
    </g>
    <g>
      <path class="d" d="M118.1,37.8a25.1,25.1,0,0,0-14.7,8.5h-.1A20,20,0,0,0,118.1,37.8Z"/>
      <path class="d" d="M99.4,53.3a4.6,4.6,0,0,1-.3.9,31.6,31.6,0,0,0-1.1,6,24.2,24.2,0,0,0,22.8,25.4,24.5,24.5,0,0,0,18-6.8l2.5-2.8a24,24,0,0,0-15.2-38.3A26.8,26.8,0,0,1,99.4,53.3Z"/>
      <path class="d" d="M121.3,28.9c1.9-23.3-30.1-30.5-38.2-8.4a19.7,19.7,0,0,0,11,24.4,3,3,0,0,1,.4-.8A32.5,32.5,0,0,1,121.3,28.9Z"/>
      <path class="b" d="M123.8,28.9l4.5.5c2.2-32.1-40.8-41-51.8-11.1C70.3,33.2,61.3,35.7,61.3,35.7l18,5.4a32,32,0,0,0,8.2,8.2,20.5,20.5,0,0,0,3.6,1.9,25.5,25.5,0,0,0,8.1,2.1h.2a26.8,26.8,0,0,0,26.7-15.6l-2.7-.3a22.8,22.8,0,0,0-5.3.4,20,20,0,0,1-14.8,8.6,20.7,20.7,0,0,1-9.2-1.5,19.7,19.7,0,0,1-11-24.4c8.1-22.1,40.1-14.9,38.2,8.4Z"/>
      <path class="c" d="M154.7,63.2a32.7,32.7,0,0,0-26.4-33.8l-4.5-.5h-2.5A32.5,32.5,0,0,0,94.5,44.1a3,3,0,0,0-.4.8,20.7,20.7,0,0,0,9.2,1.5h.1a25.1,25.1,0,0,1,14.7-8.5,22.8,22.8,0,0,1,5.3-.4l2.7.3A24,24,0,0,1,141.3,76l-2.5,2.8a24.5,24.5,0,0,1-18,6.8A24.2,24.2,0,0,1,98,60.2a31.6,31.6,0,0,1,1.1-6,4.6,4.6,0,0,0,.3-.9h-.2a25.5,25.5,0,0,1-8.1-2.1,30.5,30.5,0,0,0-1.6,8.6,32.6,32.6,0,0,0,30.9,34.3,31.9,31.9,0,0,0,19.1-5l24.7.9S153.6,81.7,154.7,63.2Z"/>
    </g>
  </g>
</svg>
